<svg width="19" height="20" viewBox="0 0 19 20" fill="none" xmlns="http://www.w3.org/2000/svg">
<path d="M0.00036622 13.8864C-0.0185623 14.9944 0.694247 14.9578 2.60917 14.3072H16.074C18.1747 14.9355 18.8727 14.9363 18.6828 13.8864C18.0329 11.8293 17.2148 10.423 14.3909 7.15403C13.1285 5.89171 14.5592 0.000856619 9.34157 0.000856427C4.96551 -0.0832983 5.41942 6.06002 4.46058 7.15403C1.55023 10.4747 0.344109 12.0846 0.00036622 13.8864Z" fill="#77797B"/>
<path d="M16.242 12.8764C16.242 16.6876 13.1524 19.7771 9.34126 19.7771C5.5301 19.7771 2.44055 16.6876 2.44055 12.8764C2.44055 9.06527 5.5301 5.97572 9.34126 5.97572C13.1524 5.97572 16.242 9.06527 16.242 12.8764Z" fill="#77797B"/>
<ellipse cx="9.34132" cy="12.2875" rx="4.88099" ry="5.30176" fill="#909192"/>
<path d="M12.1176 5.88839C12.0837 4.65773 6.78627 4.65968 6.73525 5.88839C6.67153 6.47147 7.791 7.04331 9.46913 7.99571C11.3066 6.91948 12.1519 6.37437 12.1176 5.88839Z" fill="#D7D7D7"/>
</svg>
